<svg xmlns="http://www.w3.org/2000/svg" viewBox="0 0 500 500"><g id="freepik--Floor--inject-81"><ellipse cx="250" cy="355.33" rx="228.56" ry="134.65" style="fill:#f5f5f5"></ellipse></g><g id="freepik--Shadows--inject-81"><ellipse cx="250.97" cy="464.57" rx="28.82" ry="16.98" style="fill:#e0e0e0"></ellipse><ellipse cx="98.8" cy="365.47" rx="28.82" ry="16.98" style="fill:#e0e0e0"></ellipse><ellipse cx="364.77" cy="424.67" rx="21.08" ry="12.42" style="fill:#e0e0e0"></ellipse><ellipse cx="150.89" cy="325.78" rx="21.08" ry="12.42" style="fill:#e0e0e0"></ellipse><path d="M335.45,377.88l-78.36-45.24a16.33,16.33,0,0,0-16.34,0l-76.2,44.09a3.8,3.8,0,0,0,0,6.58l78.36,45.24a16.33,16.33,0,0,0,16.34,0l76.2-44.1A3.79,3.79,0,0,0,335.45,377.88Z" style="fill:#e0e0e0"></path></g><g id="freepik--Character--inject-81"><path d="M189.15,90.39h0a8,8,0,0,1-2.94-5.69c-.22-3.24-.5-7.73-.5-8.76,0-1.64,0-5.31-2.34-4.27s-3.11,6.54-2.9,9.7c0,0-11.81-12.62-13.21-13.87s-3.47-1.51-4.06,0,1.06,4.26,6.68,11.41c0,0-3.12-.21-3.6,3.5,0,0-3.12,1-1.88,4.66,0,0-3.46,1.62-.76,5.49S181,102.69,181,102.69Z" style="fill:#ffa8a7"></path><path d="M189.68,89.43s-8.74,10.44-10.75,15.16l27.94,19.94a19.81,19.81,0,0,0,14.85,3.41L255,122.31,266.3,99.68h-3.87a31.25,31.25,0,0,0-6,.58l-38,7.5Z" style="fill:#37474f"></path><path d="M265,344.68h4.36s2.17,1.25,2,5,.46,9.16.54,11.52-3.14,4.53-8,4.11-9.3-.82-12.68,1S239.58,373,232,368s-4.28-8.62-3.35-8.57,14.07-3.49,17.89-6.35,9.93-8.11,9.93-8.11Z" style="fill:#263238"></path><path d="M256.45,336.09v11.82s1.51,2.36,6.54,1.73,6.32-2.93,6.32-2.93V336.09Z" style="fill:#ffa8a7"></path><path d="M309,361.59s5.71-.63,6.19,2.88,1.43,11.4-.16,13.38-6,5.88-7.17,7.88-7,11.87-17.18,12.74-12.39-7.55-9-10.39S294,379.2,296,373.59a62.72,62.72,0,0,1,4.92-10.32Z" style="fill:#263238"></path><path d="M300.42,355.79l.69,10.8s4.54,5.4,12-.9a2.26,2.26,0,0,0,.81-1.88L313.3,354Z" style="fill:#ffa8a7"></path><path d="M251.19,191.25,249.71,273l2.87,68.8s9.51,4.81,22.17,0L279,274.14l5.36-77.68Z" style="fill:#37474f"></path><polygon points="277.15 233.53 278.97 274.14 281.77 233.53 277.15 233.53" style="fill:#263238"></polygon><path d="M281.52,237.22,283.19,213l-18.36-.37C264.07,211.65,266,225.41,281.52,237.22Z" style="fill:#263238"></path><path d="M257.53,200.8s4.3,19.84,22.17,27.68L284,289.12a19.86,19.86,0,0,0,.32,2.44l13.34,68.09s7.13,6.41,19.82,0L317,302.32a63.06,63.06,0,0,0-3.63-20.58h0L312,200.8Z" style="fill:#37474f"></path><path d="M261.76,192.58s5,15.26,30.77,9.89V116.88H261.76Z" style="fill:#f0f0f0"></path><path d="M264.24,58.2s-10.32,4.15-4.81,20.16Z" style="fill:#263238"></path><polygon points="270.53 116.05 271.94 123.35 275.34 124.53 283.65 118.3 270.53 116.05" style="fill:#455a64"></polygon><path d="M293.34,89.43V106s-10.27,14.18-18.59,14.18V99Z" style="fill:#ffa8a7"></path><path d="M274.75,104.63c6.24-2,12.69-6.15,14.71-11.56a18,18,0,0,0,.59-1.94L274.75,99Z" style="fill:#f28f8f"></path><path d="M274.75,120.14l.05-19.89s-3.23-.83-4.64.2-9,22.24-9,22.24,7.63-4.85,9-5.19,4.64,3.57,4.64,3.57Z" style="fill:#e0e0e0"></path><path d="M271.51,100.64s-8,15.29-8,27.87v84.35s-10,.16-15.34-7.21V129c0-7,3.78-24.19,18.11-29.28Z" style="fill:#455a64"></path><path d="M267.7,99.93,258,111.15a2.21,2.21,0,0,0-.39,2.28l2.68,6.81-4.57,7.63a3.54,3.54,0,0,0-.28,3l8.11,21.85V128.51c0-12.58,8-27.87,8-27.87Z" style="fill:#37474f"></path><path d="M276.32,58.68c-5.44,0-15.76,2.25-16.64,14.74s-.34,28,10.11,28.89c7.26.61,20.48-4.69,23.55-12.88S296.07,58.68,276.32,58.68Z" style="fill:#ffa8a7"></path><path d="M292,83.26s-3-1.91-2.07-8.35-2-8.9-4.52-8.82-17.57,3.45-23.17-2.8S258.67,51,265.58,51c4.21,0,8.25,3.11,14.61,3.23s16.32-.87,17,9.47c0,0,6.07-1.66,4.14,9.93s-4.57,19.44-8.06,21.91V86.67Z" style="fill:#263238"></path><path d="M292,83.26s1.32-5.93,5.76-5.93,4.35,4.57,3.79,7.62-2.78,6-5.73,6A4.06,4.06,0,0,1,292,88.23Z" style="fill:#ffa8a7"></path><path d="M296.66,64.13l4.52-2.81s-2.26-1.9-3.58-.52A4.07,4.07,0,0,0,296.66,64.13Z" style="fill:#263238"></path><polygon points="270.73 80.13 270.73 89.11 265.47 87.49 270.73 80.13" style="fill:#f28f8f"></polygon><path d="M278.41,81.68a1.83,1.83,0,1,1-1.83-1.83A1.83,1.83,0,0,1,278.41,81.68Z" style="fill:#263238"></path><path d="M266.37,80.4a1.83,1.83,0,1,1-1.83-1.83A1.83,1.83,0,0,1,266.37,80.4Z" style="fill:#263238"></path><path d="M262.32,76.59l3.57-2.12s-1.37-1.43-2.74-.57S262.32,76.59,262.32,76.59Z" style="fill:#263238"></path><path d="M277.53,76l3.23,2.62s.86-1.78-.41-2.77S277.53,76,277.53,76Z" style="fill:#263238"></path><path d="M268.25,92.75a7.85,7.85,0,0,0,4.93-1.32s.34,2.59-1.84,3.09S268.25,92.75,268.25,92.75Z" style="fill:#f28f8f"></path><path d="M274.75,120.14s12.88-6.42,18.59-14.18v-4.11l.11,0a6.11,6.11,0,0,1,3.77,3.3l2.64,5.75-11.63,19.33s-6.26-11-8.47-10.87a14.5,14.5,0,0,0-5,1.68Z" style="fill:#e0e0e0"></path><path d="M298.71,108.43,283.59,134.3a3.21,3.21,0,0,0-.44,1.63V216.1s16.67,7.35,30.14-3.72V130.75l2-10.91S304.09,110.91,298.71,108.43Z" style="fill:#455a64"></path><path d="M302.34,109.87l-4.33-3,.05.1a3,3,0,0,1-.14,2.79L283.59,134.3a3.21,3.21,0,0,0-.44,1.63v24.94l11-17.61a3,3,0,0,0,.12-3l-3.56-6.82,9.32-5.39a3,3,0,0,0,1.48-2.32l1.35-14.8A1.18,1.18,0,0,0,302.34,109.87Z" style="fill:#37474f"></path><path d="M269.35,128.35s-3.53,37-3.4,51.59l5.78,11.31,7.24-8-4.29-53Z" style="fill:#37474f"></path><path d="M270.31,119.68s6.66,1,9.2,2.49c2.08,1.18-1.87,5.82-3.39,7.48a1.93,1.93,0,0,1-1.44.64c-1.51,0-4.61-.24-6.21-2.07C267.54,127.16,267.73,119.21,270.31,119.68Z" style="fill:#455a64"></path><polygon points="245.34 236.15 173.75 194.82 214.98 170.39 286.57 211.72 245.34 236.15" style="fill:#FF6B01"></polygon><polygon points="245.34 236.15 173.75 194.82 214.98 170.39 286.57 211.72 245.34 236.15" style="opacity:0.1"></polygon><polygon points="245.34 236.15 214.98 170.39 286.57 211.72 245.34 236.15" style="opacity:0.30000000000000004"></polygon><path d="M235.81,121.33c-2.28-2.2-3-5.18-.15-8.12s7-3.54,9.26-1.34,1.85,6.36-1,9.3S238.1,123.53,235.81,121.33Z" style="fill:#FF6B01"></path><path d="M235.81,121.33c-2.28-2.2-3-5.18-.15-8.12s7-3.54,9.26-1.34,1.85,6.36-1,9.3S238.1,123.53,235.81,121.33Z" style="opacity:0.2"></path><path d="M237.11,117.79c.59-.57,3,.12,2.3,2.33,0,0-3.5,4.53-5.34,7.29-.42.63-3.66-.56-2.53-2.58A35.11,35.11,0,0,1,237.11,117.79Z" style="fill:#FF6B01"></path><path d="M223.22,164.77h0a.78.78,0,0,1-.77-.8c.37-24.54,9.25-37.61,9.63-38.15a.78.78,0,1,1,1.29.89c-.09.13-9,13.26-9.35,37.29A.77.77,0,0,1,223.22,164.77Z" style="fill:#FF6B01"></path><g style="opacity:0.5"><path d="M223.22,164.77h0a.78.78,0,0,1-.77-.8c.37-24.54,9.25-37.61,9.63-38.15a.78.78,0,1,1,1.29.89c-.09.13-9,13.26-9.35,37.29A.77.77,0,0,1,223.22,164.77Z"></path></g><path d="M177.74,188.22l41.06-23.84v-3.91a7.69,7.69,0,0,0-10.09-7.3L191,159s-9.83,2.25-9.83-9.28l-3.42,1.89Z" style="fill:#FF6B01"></path><path d="M177.74,188.22l41.06-23.84v-3.91a7.69,7.69,0,0,0-10.09-7.3L191,159s-9.83,2.25-9.83-9.28l-3.42,1.89Z" style="opacity:0.30000000000000004"></path><path d="M191,159l17.72-5.84a7.64,7.64,0,0,1,5.68.36,7.64,7.64,0,0,0-7.38-1.45l-17.71,5.84a9.66,9.66,0,0,1-5.46-.54C186.75,160,191,159,191,159Z" style="fill:#FF6B01"></path><g style="opacity:0.5"><path d="M191,159l17.72-5.84a7.64,7.64,0,0,1,5.68.36,7.64,7.64,0,0,0-7.38-1.45l-17.71,5.84a9.66,9.66,0,0,1-5.46-.54C186.75,160,191,159,191,159Z"></path></g><polygon points="218.8 164.38 276.29 197.85 239.53 219.36 181.75 186.85 218.8 164.38" style="fill:#FF6B01"></polygon><polygon points="218.8 164.38 276.29 197.85 239.53 219.36 181.75 186.85 218.8 164.38" style="opacity:0.1"></polygon><polygon points="242.23 223.1 183.72 189.32 183.72 195.83 242.23 229.61 242.23 223.1" style="fill:#FF6B01"></polygon><polygon points="242.23 223.1 183.72 189.32 183.72 195.83 242.23 229.61 242.23 223.1" style="opacity:0.30000000000000004"></polygon><polygon points="242.23 223.1 276.18 203.15 276.18 209.66 242.23 229.61 242.23 223.1" style="fill:#FF6B01"></polygon><polygon points="242.23 223.1 276.18 203.15 276.18 209.66 242.23 229.61 242.23 223.1" style="opacity:0.5"></polygon><polygon points="183.83 144.71 173.75 150.82 173.75 186.06 245.51 227.65 245.51 191.05 235.48 175.3 183.83 144.71" style="fill:#FF6B01"></polygon><polygon points="183.83 144.71 187.25 142.82 238.91 173.41 235.48 175.3 183.83 144.71" style="fill:#FF6B01"></polygon><polygon points="183.83 144.71 187.25 142.82 238.91 173.41 235.48 175.3 183.83 144.71" style="opacity:0.1"></polygon><polygon points="235.48 175.3 238.91 173.41 248.93 189.16 245.51 191.05 235.48 175.3" style="fill:#FF6B01"></polygon><polygon points="235.48 175.3 238.91 173.41 248.93 189.16 245.51 191.05 235.48 175.3" style="opacity:0.30000000000000004"></polygon><path d="M245.51,227.65l41.06-23.84v-3.9a7.69,7.69,0,0,0-10.09-7.31l-17.72,5.84s-9.83,2.26-9.83-9.28l-3.42,1.89Z" style="fill:#FF6B01"></path><path d="M245.51,227.65l41.06-23.84v-3.9a7.69,7.69,0,0,0-10.09-7.31l-17.72,5.84s-9.83,2.26-9.83-9.28l-3.42,1.89Z" style="opacity:0.30000000000000004"></path><path d="M258.76,198.44l17.72-5.84a7.64,7.64,0,0,1,5.68.36,7.64,7.64,0,0,0-7.38-1.45l-17.71,5.84a9.56,9.56,0,0,1-5.46-.54C254.52,199.41,258.76,198.44,258.76,198.44Z" style="fill:#FF6B01"></path><g style="opacity:0.5"><path d="M258.76,198.44l17.72-5.84a7.64,7.64,0,0,1,5.68.36,7.64,7.64,0,0,0-7.38-1.45l-17.71,5.84a9.56,9.56,0,0,1-5.46-.54C254.52,199.41,258.76,198.44,258.76,198.44Z"></path></g><polygon points="173.75 194.82 173.75 382.7 245.34 424.03 245.34 236.15 173.75 194.82" style="fill:#FF6B01"></polygon><polygon points="229.09 254.11 220.05 238.45 220.08 238.43 195.77 224.4 195.8 224.45 186.76 229.67 186.76 360.32 195.8 375.98 220.05 389.98 229.09 384.76 229.09 254.11" style="fill:#FF6B01"></polygon><polygon points="229.09 254.11 220.05 238.45 220.08 238.43 195.77 224.4 195.8 224.45 186.76 229.67 186.76 360.32 195.8 375.98 220.05 389.98 229.09 384.76 229.09 254.11" style="fill:#fff;opacity:0.5"></polygon><path d="M286.57,211.72v47.21h0a41,41,0,0,0-19.89,35.13V411.43L245.34,424V236.15Z" style="fill:#FF6B01"></path><path d="M286.57,211.72v47.21h0a41,41,0,0,0-19.89,35.13V411.43L245.34,424V236.15Z" style="opacity:0.30000000000000004"></path><path d="M288.75,197.42s-7.59,4.54-10.46,6.2-4.2,2.73-3.62,4.4,5.28.91,8.72-.14c0,0-6.06,4.7-10.55,7.56s-4.42,4.51-2.67,6.23,9,4.61,14.06,2.92,10.12-6.26,15.36-15.67C299.59,208.92,298.5,197.67,288.75,197.42Z" style="fill:#ffa8a7"></path><path d="M315.27,119.84s-15.2,10.92-6.95,32.11l8.24,21.18-28.95,24.25s10,4,12.13,12.65l30.69-22.42a16.94,16.94,0,0,0,6.1-19C331.15,152.3,321.25,124.37,315.27,119.84Z" style="fill:#37474f"></path></g></svg>